{
  "accessors": [
    {
      "bufferView": 1,
      "componentType": 5126,
      "count": 604,
      "max": [68.078704833984375, 64.428451538085938, 24.663774490356445],
      "min": [9.4287023544311523, 37.226455688476562, -0.0022263368591666222],
      "type": "VEC3"
    },
    {
      "bufferView": 1,
      "byteOffset": 7248,
      "componentType": 5126,
      "count": 604,
      "max": [0.99537456035614014, 0.98683005571365356, 0.99716585874557495],
      "min": [-0.99461239576339722, -0.99973678588867188, -0.99680989980697632],
      "type": "VEC3"
    },
    {
      "bufferView": 0,
      "componentType": 5125,
      "count": 2232,
      "max": [603],
      "min": [0],
      "type": "SCALAR"
    }
  ],
  "asset": {
    "extras": {
      "author": "Hyungjung Kim (https://sketchfab.com/hyungjungkim)",
      "license": "CC-BY-NC-4.0 (http://creativecommons.org/licenses/by-nc/4.0/)",
      "source": "https://sketchfab.com/models/81910476b24d4fc5a73c908d6c2a38a2",
      "title": "Low Poly Cloud"
    },
    "generator": "Sketchfab-3.18.7",
    "version": "2.0"
  },
  "bufferViews": [
    {
      "buffer": 0,
      "byteLength": 8928,
      "byteOffset": 0,
      "name": "floatBufferViews",
      "target": 34963
    },
    {
      "buffer": 0,
      "byteLength": 14496,
      "byteOffset": 8928,
      "byteStride": 12,
      "name": "floatBufferViews",
      "target": 34962
    }
  ],
  "buffers": [
    {
      "byteLength": 23424,
      "uri": "scene.bin"
    }
  ],
  "materials": [
    {
      "doubleSided": true,
      "emissiveFactor": [0, 0, 0],
      "name": "Scene_-_Root",
      "pbrMetallicRoughness": {
        "baseColorFactor": [1, 1, 1, 1],
        "metallicFactor": 0,
        "roughnessFactor": 0.59999999999999998
      }
    }
  ],
  "meshes": [
    {
      "primitives": [
        {
          "attributes": {
            "NORMAL": 1,
            "POSITION": 0
          },
          "indices": 2,
          "material": 0,
          "mode": 4
        }
      ]
    }
  ],
  "nodes": [
    {
      "children": [1],
      "name": "RootNode (gltf orientation matrix)",
      "rotation": [-0.70710678118654746, -0, -0, 0.70710678118654757]
    },
    {
      "children": [2],
      "name": "RootNode (model correction matrix)"
    },
    {
      "children": [3],
      "name": "aac6d3af1717478786bd50f7c006ca5e.stl.cleaner.materialmerger.gles"
    },
    {
      "mesh": 0,
      "name": ""
    }
  ],
  "scene": 0,
  "scenes": [
    {
      "name": "OSG_Scene",
      "nodes": [0]
    }
  ]
}
