{
  "asset": {
    "version": "2.0",
    "generator": "THREE.GLTFExporter"
  },
  "scenes": [
    {
      "name": "Scene",
      "nodes": [
        0,
        1,
        2,
        3,
        4,
        5,
        6,
        7,
        8,
        9,
        10,
        11,
        12,
        13,
        14,
        15,
        16,
        17,
        18,
        19,
        20,
        21,
        22,
        23,
        24,
        25,
        26,
        27,
        28,
        29,
        30,
        31,
        32,
        33,
        34,
        35,
        36,
        37,
        38
      ]
    }
  ],
  "scene": 0,
  "nodes": [
    {
      "matrix": [
        0.14,
        0,
        0,
        0,
        0,
        10.98,
        0,
        0,
        0,
        0,
        0.22,
        0,
        -4.987341531285845,
        5.362226882396192,
        -5.010653964236708,
        1
      ],
      "name": "Cylinder",
      "mesh": 0
    },
    {
      "matrix": [
        0.14,
        0,
        0,
        0,
        0,
        10.98,
        0,
        0,
        0,
        0,
        0.22,
        0,
        7.197216616733062,
        5.351806492755326,
        5.061468612276143,
        1
      ],
      "name": "Cylinder",
      "mesh": 0
    },
    {
      "matrix": [
        0.14,
        0,
        0,
        0,
        0,
        10.98,
        0,
        0,
        0,
        0,
        0.22,
        0,
        -5.038054487405306,
        5.475161882512906,
        4.994915373411855,
        1
      ],
      "name": "Cylinder",
      "mesh": 0
    },
    {
      "matrix": [
        0.14,
        0,
        0,
        0,
        0,
        10.98,
        0,
        0,
        0,
        0,
        0.22,
        0,
        7.197604831760998,
        5.362226882396192,
        -5.010653964236708,
        1
      ],
      "name": "Cylinder",
      "mesh": 0
    },
    {
      "matrix": [
        0.2599984159910255,
        0.0000063359779961724705,
        0.0009075472511328678,
        0,
        -0.04000286521846397,
        0.08000475559532201,
        11.459650911343523,
        0,
        0,
        -0.4799883027385894,
        0.0033510049430216424,
        0,
        -5.2122953365254645,
        2.016062327904105,
        -0.07207863792092051,
        1
      ],
      "name": "Cylinder",
      "mesh": 0
    },
    {
      "matrix": [
        0.2599984159910255,
        0.0000063359779961724705,
        0.0009075472511328678,
        0,
        -0.04000286521846397,
        0.08000475559532201,
        11.459650911343523,
        0,
        0,
        -0.4799883027385894,
        0.0033510049430216424,
        0,
        -5.176285118788749,
        0.8408110362310124,
        0.003292911916399077,
        1
      ],
      "name": "Cylinder",
      "mesh": 0
    },
    {
      "matrix": [
        0.2599984159910255,
        0.0000063359779961724705,
        0.0009075472511328678,
        0,
        -0.04000286521846397,
        0.08000475559532201,
        11.459650911343523,
        0,
        0,
        -0.4799883027385894,
        0.0033510049430216424,
        0,
        -5.2122953365254645,
        3.2242441976647824,
        -0.07207863792092051,
        1
      ],
      "name": "Cylinder",
      "mesh": 0
    },
    {
      "matrix": [
        0.2599984159910255,
        0.0000063359779961724705,
        0.0009075472511328678,
        0,
        -0.04000286521846397,
        0.08000475559532201,
        11.459650911343523,
        0,
        0,
        -0.4799883027385894,
        0.0033510049430216424,
        0,
        -5.2122953365254645,
        4.4688936001675605,
        -0.07207863792092051,
        1
      ],
      "name": "Cylinder",
      "mesh": 0
    },
    {
      "matrix": [
        0.2599984159910255,
        0.0000063359779961724705,
        0.0009075472511328678,
        0,
        -0.04000286521846397,
        0.08000475559532201,
        11.459650911343523,
        0,
        0,
        -0.4799883027385894,
        0.0033510049430216424,
        0,
        -5.2122953365254645,
        5.796764573050884,
        -0.07207863792092051,
        1
      ],
      "name": "Cylinder",
      "mesh": 0
    },
    {
      "matrix": [
        0.2599984159910255,
        0.0000063359779961724705,
        0.0009075472511328678,
        0,
        -0.04000286521846397,
        0.08000475559532201,
        11.459650911343523,
        0,
        0,
        -0.4799883027385894,
        0.0033510049430216424,
        0,
        -5.2122953365254645,
        7.201684285841343,
        -0.07207863792092051,
        1
      ],
      "name": "Cylinder",
      "mesh": 0
    },
    {
      "matrix": [
        0.2599984159910255,
        0.0000063359779961724705,
        0.0009075472511328678,
        0,
        -0.04000286521846397,
        0.08000475559532201,
        11.459650911343523,
        0,
        0,
        -0.4799883027385894,
        0.0033510049430216424,
        0,
        -5.2122953365254645,
        8.543520424885283,
        -0.07207863792092051,
        1
      ],
      "name": "Cylinder",
      "mesh": 0
    },
    {
      "matrix": [
        0.2599984159910255,
        0.0000063359779961724705,
        0.0009075472511328678,
        0,
        -0.04000286521846397,
        0.08000475559532201,
        11.459650911343523,
        0,
        0,
        -0.4799883027385894,
        0.0033510049430216424,
        0,
        -5.2122953365254645,
        9.75483595708712,
        -0.07207863792092051,
        1
      ],
      "name": "Cylinder",
      "mesh": 0
    },
    {
      "matrix": [
        -0.0009773585781429972,
        -0.000006823360918923882,
        0.27999829414418126,
        0,
        -6.999786769581557,
        -0.04886852436014122,
        -0.024434559906565123,
        0,
        0.003351004943021456,
        -0.4799883027385894,
        2.1316282072803005e-16,
        0,
        3.7007242977883865,
        8.330049788798652,
        -5.5832554275384085,
        1
      ],
      "name": "Cylinder",
      "mesh": 0
    },
    {
      "matrix": [
        -0.0009773585781429972,
        -0.000006823360918923882,
        0.27999829414418126,
        0,
        -12.339624105233774,
        -0.08614822722916324,
        -0.04307463846385909,
        0,
        0.003351004943021456,
        -0.4799883027385894,
        2.1316282072803005e-16,
        0,
        1.018959408884716,
        2.2089658744445577,
        5.426113986681681,
        1
      ],
      "name": "Cylinder",
      "mesh": 0
    },
    {
      "matrix": [
        -0.0009773585781429972,
        -0.000006823360918923882,
        0.27999829414418126,
        0,
        -12.339624105233774,
        -0.08614822722916324,
        -0.04307463846385909,
        0,
        0.003351004943021456,
        -0.4799883027385894,
        2.1316282072803005e-16,
        0,
        1.0268962138308564,
        3.612176339888879,
        5.246434346128151,
        1
      ],
      "name": "Cylinder",
      "mesh": 0
    },
    {
      "matrix": [
        -0.0009773585781429972,
        -0.000006823360918923882,
        0.27999829414418126,
        0,
        -12.339624105233774,
        -0.08614822722916324,
        -0.04307463846385909,
        0,
        0.003351004943021456,
        -0.4799883027385894,
        2.1316282072803005e-16,
        0,
        1.0335127413001217,
        4.608576500676317,
        5.11141293753621,
        1
      ],
      "name": "Cylinder",
      "mesh": 0
    },
    {
      "matrix": [
        -0.0009773585781429972,
        -0.000006823360918923882,
        0.27999829414418126,
        0,
        -12.339624105233774,
        -0.08614822722916324,
        -0.04307463846385909,
        0,
        0.003351004943021456,
        -0.4799883027385894,
        2.1316282072803005e-16,
        0,
        1.090396554260456,
        5.783895991075581,
        5.2518506656804735,
        1
      ],
      "name": "Cylinder",
      "mesh": 0
    },
    {
      "matrix": [
        -0.0009773585781429972,
        -0.000006823360918923882,
        0.27999829414418126,
        0,
        -12.339624105233774,
        -0.08614822722916324,
        -0.04307463846385909,
        0,
        0.003351004943021456,
        -0.4799883027385894,
        2.1316282072803005e-16,
        0,
        0.9983104235715308,
        7.008187126907674,
        5.129698808027483,
        1
      ],
      "name": "Cylinder",
      "mesh": 0
    },
    {
      "matrix": [
        -0.0009773585781429972,
        -0.000006823360918923882,
        0.27999829414418126,
        0,
        -12.339624105233774,
        -0.08614822722916324,
        -0.04307463846385909,
        0,
        0.003351004943021456,
        -0.4799883027385894,
        2.1316282072803005e-16,
        0,
        0.955682936242877,
        8.183506617306692,
        4.905646139496733,
        1
      ],
      "name": "Cylinder",
      "mesh": 0
    },
    {
      "matrix": [
        -0.0009773585781429972,
        -0.000006823360918923882,
        0.27999829414418126,
        0,
        -12.339624105233774,
        -0.08614822722916324,
        -0.04307463846385909,
        0,
        0.003351004943021456,
        -0.4799883027385894,
        2.1316282072803005e-16,
        0,
        1.3461222231979275,
        9.682946851897574,
        5.153310227552295,
        1
      ],
      "name": "Cylinder",
      "mesh": 0
    },
    {
      "matrix": [
        0.2599984159910255,
        0.0000063359779961724705,
        0.0009075472511328678,
        0,
        -0.04000286521846397,
        0.08000475559532201,
        11.459650911343523,
        0,
        0,
        -0.4799883027385894,
        0.0033510049430216424,
        0,
        7.491194721583596,
        0.8237286539218646,
        0.09942633076365698,
        1
      ],
      "name": "Cylinder",
      "mesh": 0
    },
    {
      "matrix": [
        0.2599984159910255,
        0.0000063359779961724705,
        0.0009075472511328678,
        0,
        -0.04000286521846397,
        0.08000475559532201,
        11.459650911343523,
        0,
        0,
        -0.4799883027385894,
        0.0033510049430216424,
        0,
        7.491194721583596,
        1.8148853969364496,
        0.18144314335065903,
        1
      ],
      "name": "Cylinder",
      "mesh": 0
    },
    {
      "matrix": [
        0.2599984159910255,
        0.0000063359779961724705,
        0.0009075472511328678,
        0,
        -0.04000286521846397,
        0.08000475559532201,
        11.459650911343523,
        0,
        0,
        -0.4799883027385894,
        0.0033510049430216424,
        0,
        7.491194721583596,
        3.1376483870643717,
        0.18144314335065903,
        1
      ],
      "name": "Cylinder",
      "mesh": 0
    },
    {
      "matrix": [
        0.2599984159910255,
        0.0000063359779961724705,
        0.0009075472511328678,
        0,
        -0.04000286521846397,
        0.08000475559532201,
        11.459650911343523,
        0,
        0,
        -0.4799883027385894,
        0.0033510049430216424,
        0,
        7.491194721583596,
        4.327265564596775,
        0.18144314335065903,
        1
      ],
      "name": "Cylinder",
      "mesh": 0
    },
    {
      "matrix": [
        0.2599984159910255,
        0.0000063359779961724705,
        0.0009075472511328678,
        0,
        -0.04000286521846397,
        0.08000475559532201,
        11.459650911343523,
        0,
        0,
        -0.4799883027385894,
        0.0033510049430216424,
        0,
        7.491194721583596,
        5.294347004823027,
        0.18144314335065903,
        1
      ],
      "name": "Cylinder",
      "mesh": 0
    },
    {
      "matrix": [
        0.2599984159910255,
        0.0000063359779961724705,
        0.0009075472511328678,
        0,
        -0.04000286521846397,
        0.08000475559532201,
        11.459650911343523,
        0,
        0,
        -0.4799883027385894,
        0.0033510049430216424,
        0,
        7.491194721583596,
        6.337811517270037,
        0.18144314335065903,
        1
      ],
      "name": "Cylinder",
      "mesh": 0
    },
    {
      "matrix": [
        0.2599984159910255,
        0.0000063359779961724705,
        0.0009075472511328678,
        0,
        -0.04000286521846397,
        0.08000475559532201,
        11.459650911343523,
        0,
        0,
        -0.4799883027385894,
        0.0033510049430216424,
        0,
        7.491194721583596,
        7.729532594548419,
        0.18144314335065903,
        1
      ],
      "name": "Cylinder",
      "mesh": 0
    },
    {
      "matrix": [
        0.2599984159910255,
        0.0000063359779961724705,
        0.0009075472511328678,
        0,
        -0.04000286521846397,
        0.08000475559532201,
        11.459650911343523,
        0,
        0,
        -0.4799883027385894,
        0.0033510049430216424,
        0,
        7.491194721583596,
        8.676456339223105,
        0.18144314335065903,
        1
      ],
      "name": "Cylinder",
      "mesh": 0
    },
    {
      "matrix": [
        0.2599984159910255,
        0.0000063359779961724705,
        0.0009075472511328678,
        0,
        -0.04000286521846397,
        0.08000475559532201,
        11.459650911343523,
        0,
        0,
        -0.4799883027385894,
        0.0033510049430216424,
        0,
        7.491194721583596,
        9.776458220252184,
        0.18144314335065903,
        1
      ],
      "name": "Cylinder",
      "mesh": 0
    },
    {
      "matrix": [
        0.1999987815315581,
        0.0006981302830447464,
        0,
        0,
        -0.03490651415223732,
        9.999939076577904,
        0,
        0,
        0,
        0,
        0.48,
        0,
        0.2618234648672068,
        4.861611762920552,
        -5.409724684962585,
        1
      ],
      "name": "Cylinder",
      "mesh": 0
    },
    {
      "matrix": [
        -0.0009773585781429972,
        -0.000006823360918923882,
        0.27999829414418126,
        0,
        -12.339624105233774,
        -0.08614822722916324,
        -0.04307463846385909,
        0,
        0.003351004943021456,
        -0.4799883027385894,
        2.1316282072803005e-16,
        0,
        1.213474295329013,
        9.682946851897574,
        -5.179532363449493,
        1
      ],
      "name": "Cylinder",
      "mesh": 0
    },
    {
      "matrix": [
        -0.0009773585781429972,
        -0.000006823360918923882,
        0.27999829414418126,
        0,
        -6.999786769581557,
        -0.04886852436014122,
        -0.024434559906565123,
        0,
        0.003351004943021456,
        -0.4799883027385894,
        2.1316282072803005e-16,
        0,
        3.7007242977883865,
        7.132476620262774,
        -5.5832554275384085,
        1
      ],
      "name": "Cylinder",
      "mesh": 0
    },
    {
      "matrix": [
        -0.0009773585781429972,
        -0.000006823360918923882,
        0.27999829414418126,
        0,
        -6.999786769581557,
        -0.04886852436014122,
        -0.024434559906565123,
        0,
        0.003351004943021456,
        -0.4799883027385894,
        2.1316282072803005e-16,
        0,
        3.7007242977883865,
        6.148557388626491,
        -5.5832554275384085,
        1
      ],
      "name": "Cylinder",
      "mesh": 0
    },
    {
      "matrix": [
        -0.0009773585781429972,
        -0.000006823360918923882,
        0.27999829414418126,
        0,
        -6.999786769581557,
        -0.04886852436014122,
        -0.024434559906565123,
        0,
        0.003351004943021456,
        -0.4799883027385894,
        2.1316282072803005e-16,
        0,
        3.7007242977883865,
        4.472415935471605,
        -5.5832554275384085,
        1
      ],
      "name": "Cylinder",
      "mesh": 0
    },
    {
      "matrix": [
        -0.0009773585781429972,
        -0.000006823360918923882,
        0.27999829414418126,
        0,
        -6.999786769581557,
        -0.04886852436014122,
        -0.024434559906565123,
        0,
        0.003351004943021456,
        -0.4799883027385894,
        2.1316282072803005e-16,
        0,
        3.7007242977883865,
        3.4950816819565516,
        -5.5832554275384085,
        1
      ],
      "name": "Cylinder",
      "mesh": 0
    },
    {
      "matrix": [
        -0.0009773585781429972,
        -0.000006823360918923882,
        0.27999829414418126,
        0,
        -6.999786769581557,
        -0.04886852436014122,
        -0.024434559906565123,
        0,
        0.003351004943021456,
        -0.4799883027385894,
        2.1316282072803005e-16,
        0,
        3.7007242977883865,
        2.499148295156645,
        -5.5832554275384085,
        1
      ],
      "name": "Cylinder",
      "mesh": 0
    },
    {
      "matrix": [
        -0.0009773585781429972,
        -0.000006823360918923882,
        0.27999829414418126,
        0,
        -6.999786769581557,
        -0.04886852436014122,
        -0.024434559906565123,
        0,
        0.003351004943021456,
        -0.4799883027385894,
        2.1316282072803005e-16,
        0,
        3.7007242977883865,
        1.3788216458755054,
        -5.5832554275384085,
        1
      ],
      "name": "Cylinder",
      "mesh": 0
    },
    {
      "matrix": [
        -0.0009773585781429972,
        -0.000006823360918923882,
        0.27999829414418126,
        0,
        -6.999786769581557,
        -0.04886852436014122,
        -0.024434559906565123,
        0,
        0.003351004943021456,
        -0.4799883027385894,
        2.1316282072803005e-16,
        0,
        3.7007242977883865,
        0.547653300003797,
        -5.5832554275384085,
        1
      ],
      "name": "Cylinder",
      "mesh": 0
    },
    {
      "matrix": [
        16.52,
        0,
        0,
        0,
        0,
        0.62,
        0,
        0,
        0,
        0,
        12.22,
        0,
        0.9927428864511216,
        10.845972152753951,
        -0.5792533884434157,
        1
      ],
      "name": "Box",
      "mesh": 1
    }
  ],
  "bufferViews": [
    {
      "buffer": 0,
      "byteOffset": 0,
      "byteLength": 624,
      "target": 34962,
      "byteStride": 12
    },
    {
      "buffer": 0,
      "byteOffset": 624,
      "byteLength": 624,
      "target": 34962,
      "byteStride": 12
    },
    {
      "buffer": 0,
      "byteOffset": 1248,
      "byteLength": 416,
      "target": 34962,
      "byteStride": 8
    },
    {
      "buffer": 0,
      "byteOffset": 1664,
      "byteLength": 192,
      "target": 34963
    },
    {
      "buffer": 0,
      "byteOffset": 1856,
      "byteLength": 288,
      "target": 34962,
      "byteStride": 12
    },
    {
      "buffer": 0,
      "byteOffset": 2144,
      "byteLength": 288,
      "target": 34962,
      "byteStride": 12
    },
    {
      "buffer": 0,
      "byteOffset": 2432,
      "byteLength": 192,
      "target": 34962,
      "byteStride": 8
    },
    {
      "buffer": 0,
      "byteOffset": 2624,
      "byteLength": 72,
      "target": 34963
    }
  ],
  "buffers": [
    {
      "byteLength": 2696,
      "uri": "data:application/octet-stream;base64,"
    }
  ],
  "accessors": [
    {
      "bufferView": 0,
      "componentType": 5126,
      "count": 52,
      "max": [1, 0.5, 1],
      "min": [-1, -0.5, -1],
      "type": "VEC3"
    },
    {
      "bufferView": 1,
      "componentType": 5126,
      "count": 52,
      "max": [1, 1, 1],
      "min": [-1, -1, -1],
      "type": "VEC3"
    },
    {
      "bufferView": 2,
      "componentType": 5126,
      "count": 52,
      "max": [1, 1],
      "min": [0, 0],
      "type": "VEC2"
    },
    {
      "bufferView": 3,
      "componentType": 5123,
      "count": 96,
      "max": [51],
      "min": [0],
      "type": "SCALAR"
    },
    {
      "bufferView": 4,
      "componentType": 5126,
      "count": 24,
      "max": [0.5, 0.5, 0.5],
      "min": [-0.5, -0.5, -0.5],
      "type": "VEC3"
    },
    {
      "bufferView": 5,
      "componentType": 5126,
      "count": 24,
      "max": [1, 1, 1],
      "min": [-1, -1, -1],
      "type": "VEC3"
    },
    {
      "bufferView": 6,
      "componentType": 5126,
      "count": 24,
      "max": [1, 1],
      "min": [0, 0],
      "type": "VEC2"
    },
    {
      "bufferView": 7,
      "componentType": 5123,
      "count": 36,
      "max": [23],
      "min": [0],
      "type": "SCALAR"
    }
  ],
  "materials": [
    {
      "pbrMetallicRoughness": {
        "metallicFactor": 0,
        "roughnessFactor": 0.9,
        "baseColorTexture": {
          "index": 0
        }
      },
      "extensions": {
        "KHR_materials_unlit": {}
      }
    },
    {
      "pbrMetallicRoughness": {
        "metallicFactor": 0,
        "roughnessFactor": 0.9,
        "baseColorTexture": {
          "index": 1
        }
      },
      "extensions": {
        "KHR_materials_unlit": {}
      }
    }
  ],
  "textures": [
    {
      "sampler": 0,
      "source": 0
    },
    {
      "sampler": 1,
      "source": 1
    }
  ],
  "samplers": [
    {
      "magFilter": 9729,
      "minFilter": 9987,
      "wrapS": 33071,
      "wrapT": 33071
    },
    {
      "magFilter": 9729,
      "minFilter": 9987,
      "wrapS": 33071,
      "wrapT": 33071
    }
  ],
  "images": [
    {
      "mimeType": "image/jpeg",
      "uri": "data:image/jpeg;base64,"
    },
    {
      "mimeType": "image/jpeg",
      "uri": "data:image/jpeg;base64,"
    }
  ],
  "meshes": [
    {
      "primitives": [
        {
          "mode": 4,
          "attributes": {
            "POSITION": 0,
            "NORMAL": 1,
            "TEXCOORD_0": 2
          },
          "indices": 3,
          "material": 0
        }
      ]
    },
    {
      "primitives": [
        {
          "mode": 4,
          "attributes": {
            "POSITION": 4,
            "NORMAL": 5,
            "TEXCOORD_0": 6
          },
          "indices": 7,
          "material": 1
        }
      ]
    }
  ],
  "extensionsUsed": ["KHR_materials_unlit"]
}
